<?xml version="1.0" encoding="UTF-8"?>
<svg version="1.1" viewBox="0 0 2048 686" width="1280" height="429" xmlns="http://www.w3.org/2000/svg">
    <path transform="translate(329,45)"
        d="m0 0h10l12 2 12 5 9 6 15 14 236 236 9 14 4 12 1 5v20l-4 13-7 13-11 12-237 237-12 9-10 5-12 3h-21l-14-4-10-6-11-9-53-53-5-6-6-5-5-6-6-5-5-6-5-4-5-6-8-7-145-145-7-10-6-15-2-11v-10l3-14 8-16 11-12 242-242 14-9 13-4zm-21 180-10 13-14 18-14 19-16 23-11 17-13 21-13 23-7 14 8 7 13 10 21 16 17 12 24 16 22 14 28 16 16 8 12-15 15-20 10-13 13-19 18-27 17-28 13-24v-4l-16-12-18-14-18-13-13-9-26-17-21-13-27-15-8-4z"
        fill="#0006FE" />
    <path transform="translate(329,45)"
        d="m0 0h10l12 2 12 5 9 6 15 14 113 113-1 4-2 23-5 25-7 25-12 31-12 26-3 6-1-3-4-2-13-10-21-16-17-12-10-7-26-17-21-13-27-15-10-5-2 4-13 17-14 18-13 18-13 19-1-2 3-5v-8l-1-3-5-2-10-3v-2l-12-7-4-1-11-8-25-14-13-8-10-6-1-3-8-4v-2l-6-2-5-3v-2l-7 3-12 12-2-1 171-171 14-9 13-4z"
        fill="#0006FE" />
    <path transform="translate(713,175)"
        d="m0 0h148l24 3 15 4 19 9 11 9 7 7 9 14 5 11 4 17 1 10v12l-2 16-4 13-6 12-7 9-7 7-10 7-17 9-10 3 1 5 11 6 12 11 9 14 7 15 17 50 20 60 1 6h-68l-4-9-14-43-17-52-6-14-8-11-9-6-13-4-14-1-38-1v141h-67zm67 53v92h68l16-3 10-5 7-6 5-9 3-9 1-6v-15l-3-14-6-10-7-7-10-5-9-2-9-1z"
        fill="#0006FE" />
    <path transform="translate(1031,175)" d="m0 0h225v56h-158v80h138v54h-138v94l13-1 149 1v55h-229z" fill="#0006FE" />
    <path transform="translate(1721,175)"
        d="m0 0h71l30 52 14 24 15 26 10 17v2h6l6-9 14-24 17-29 15-25 15-26 5-8h68l-6 12-28 48-15 26-42 72-3 5 1 5 14 25 14 24 45 78 16 28 9 15v1h-72l-14-25-14-24-30-52-14-24-2-5h-7l-2 5-14 25-10 17-30 52-14 24-4 7h-69l2-5 16-28 45-78 16-28 14-24 6-10-2-5-14-25-13-22-15-26-16-27-16-28-14-24-4-7z"
        fill="#0006FE" />
    <path transform="translate(140,216)"
        d="m0 0h4l3 3 12 6v2l5 2 6 6 16 9 24 14 12 8 2 2h3l14 8v2l11 3 3 2 1 3v8l-3 5-3 7-13 20-14 24-12 22 5 5 16 13 19 14 18 13 36 24-2 1-16-9-6-3-7 1-4 4-4 5-6 8-3 7-9 14-8 15-10 13-12 17-8 12-7 8-1 7 8 9-1 2-6-5-5-6-8-7-145-145-7-10-6-15-2-11v-10l3-14 8-16 11-12 70-70 5-3 11-11z"
        fill="#0006FE" />
    <path transform="translate(277,429)"
        d="m0 0 7 1 12 7 7 4 7 3 26 15 29 16 23 11 29 11 27 8 18 4 34 4-1 4-117 117-12 9-10 5-12 3h-21l-14-4-10-6-11-9-53-53-5-6-6-5-5-6-6-5-6-9-6-7 1-7 10-12 12-18 14-19 6-10 7-13 7-10 1-4 6-8 4-5 5-5z"
        fill="#0006FE" />
    <path transform="translate(1323,175)" d="m0 0h67v284l13-1 140 1v55h-220z" fill="#0006FE" />
    <path transform="translate(1598,175)" d="m0 0h67v339h-67z" fill="#0006FE" />
    <path transform="translate(210,373)"
        d="m0 0 8 6 13 10 21 16 17 12 36 24-2 1-16-9-6-3-7 1-4 4-4 5-6 8-3 7-9 14-8 15-10 13-12 17-8 12-7 8-1 7 8 9-1 2-6-5-5-6-8-7-23-23 2-1v-12l4-28 7-27 11-31 13-29z"
        fill="#035CFE" />
    <path transform="translate(442,128)"
        d="m0 0 7 6 51 51-1 4-2 23-5 25-7 25-12 31-12 26-3 6-1-3-4-2-13-10-21-16-17-12-10-7-21-14 2-1 13 8 5 2 5-5 9-16 3-3 1 1 4-10 9-13 8-12 8-10 12-19 5-8 2-3 4-5 3-5v-7l-8-10-14-15z"
        fill="#035BFE" />
    <path transform="translate(170,183)"
        d="m0 0 26 2 25 5 28 8 21 8 30 13 10 5-2 1-2 4-13 17-14 18-13 18-13 19-1-2 3-5v-8l-1-3-5-2-10-3v-2l-12-7-4-1-11-8-25-14-13-8-10-6-1-3-8-4v-2l-6-2-5-3v-2l-7 3-12 12-2-1z"
        fill="#035CFE" />
    <path transform="translate(423,383)"
        d="m0 0 1 2-8 12-2 4 1 5 13 10 5 2 14 10 19 14 17 13 10 6 5 4-1 1 8 7 8 9 2 1h9l5-2v-2l8-7 4-4 2 1-46 46-1-2-16-1-23-3-24-6-30-10-26-11-18-9 2-5 13-16 14-19 12-16 22-33z"
        fill="#035CFE" />
    <path transform="translate(210,373)"
        d="m0 0 8 6 13 10 21 16 13 9-1 2-13-8-6 1-13 13-4 5-3 6-8 13-7 11-10 14-8 12-11 13-6 4-4-1v-16l3-16 6-24 11-31 13-29z"
        fill="#037FFF" />
    <path transform="translate(180,186)"
        d="m0 0h22l23 5 27 8 28 11 26 12 4 3h-2l-2 4-13 17-14 18-1-2 1-4-2-5-24-12-18-12-15-9-19-11-9-6v-2l-4-2-6-4-3-4z"
        fill="#037FFF" />
    <path transform="translate(492,192)"
        d="m0 0 4 1v26l-7 30-8 24-9 22-11 24-3 6-1-3-4-2-13-10-21-16-9-6 1-2 12 7 4-2 8-15 7-9 7-10 7-11 8-12 10-13 8-14 7-14z"
        fill="#037FFF" />
    <path transform="translate(390,431)"
        d="m0 0h1v5h2l7 8 10 7 17 12 16 12 11 9 16 12 8 8 1 3-1 2-6 1-15-1-24-6-30-10-26-11-18-9 2-5 13-16 14-19z"
        fill="#037FFF" />
    <path transform="translate(210,373)"
        d="m0 0 8 6 30 23h-3l-8-5-6-1-7 2-2 4-10 11-10 14-7 12-8 6-3 1-2-5 2-10 10-26 12-26z" fill="#0390FF" />
    <path transform="translate(380,444)" d="m0 0 1 2-1 7 7 8 8 7 19 13 10 9 6 5-1 3h-12l-29-11-29-14 2-5 13-16z"
        fill="#038FFF" />
    <path transform="translate(237,198)"
        d="m0 0 15 1 28 11 26 12 4 3h-2l-2 4-13 17-3 2 1-6-2-5-21-12-18-11-11-6-4-5 1-4z" fill="#038FFF" />
    <path transform="translate(483,250)"
        d="m0 0h2v7l-4 16-9 22-11 24-3 6-1-3-4-2-26-20h3l12 7 4-1 3-9 7-12 10-12 11-16 4-6z" fill="#038FFF" />
    <path transform="translate(423,383)" d="m0 0 1 2-8 12-2 4h-2l2-5z" fill="#0466FF" />
    <path transform="translate(169,512)" d="m0 0 4 1 7 8 2 4-7-6z" fill="#0388FF" />
    <path transform="translate(490,177)" d="m0 0 4 2 4 4v2l-4-1-4-5z" fill="#0376FF" />
</svg>