<?xml version="1.0" encoding="UTF-8"?>
<svg version="1.1" viewBox="0 0 2048 686" width="1280" height="429" xmlns="http://www.w3.org/2000/svg">
<path transform="translate(359,46)" d="m0 0h13l10 2 13 5 12 9 245 245 7 11 4 11 2 9v15l-4 16-6 11-11 13-33 33-8 7-198 198-12 8-11 4-12 2h-10l-14-3-10-4-12-9-245-245-7-11-5-14-1-5v-18l4-13 5-10 8-10 12-12 6-7 8-7 217-217 14-9 12-4zm-19 177-6 9-13 16-14 19-13 18-10 15-15 23-14 24-12 22 5 5 16 13 19 14 18 13 27 18 19 12 26 15 16 9 5-5 11-14 13-17 13-18 10-14 15-23 16-26 12-22 3-6-1-4-18-14-20-15-18-13-24-16-22-14-21-12-22-12z" fill="#0009FF"/>
<path transform="translate(456,112)" d="m0 0 7 6 189 189 7 11 4 11 2 9v15l-4 16-6 11-11 13-33 33-8 7-77 77-2-1-27-3-20-4-25-7-30-11-30-14-3-2 12-15 27-36 12-17 15-23 16-26 12-22 3-6-1-4-16-12-18-14-17-12-10-7-21-14-11-7 2-1 17 9 5-1 2-4 11-18 10-16 11-18 9-10 7-11 11-16 7-13 1-8-7-9-15-16-7-7z" fill="#0009FF"/>
<path transform="translate(359,46)" d="m0 0h13l10 2 13 5 12 9 49 49 3 5 14 14 7 8 6 8-1 8-10 18-10 14-7 10-7 8-22 36-8 13-5 7-5 2-17-9-7-3-22-13-24-13-11 14-14 18-13 18-12 17-10 15-3 3 1-4v-7l-2-7-24-12-18-13-27-16-12-9-15-9-8-4-3-4-5 1-8 7-76 76v-3l14-14 6-7 8-7 217-217 14-9 12-4z" fill="#0009FF"/>
<path transform="translate(741,181)" d="m0 0h130l19 3 17 6 14 7 13 10 7 7 9 14 7 16 4 14 2 14v22l-3 19-5 16-8 16-8 12-10 11-12 9-8 4 6 11 12 19 30 48 9 15 2 6v7l-8 9-10 6-4 1h-19l-7-4-8-10-12-20-14-22-35-56v-2h-68l-4-1v98l-2 8-4 6-6 3h-31l-6-3-4-5-1-4v-296l3-7 5-5zm38 42v125h82l12-2 9-4 6-4 6-5 9-14 4-11 2-10v-25l-4-16-7-13-5-6-10-7-11-5-15-3z" fill="#0370FE"/>
<path transform="translate(1042,181)" d="m0 0h210l8 3 4 4 2 6v16l-3 7-6 5-4 1h-173v96h122l8 3 4 6 1 5v10l-3 9-4 4-11 2h-117v98l-1 6h173l9 3 4 6 1 3v17l-4 8-4 3-13 2h-196l-12-1-6-3-4-6-1-4v-296l3-7 5-4z" fill="#0370FE"/>
<path transform="translate(1722,178)" d="m0 0h7l3 1 2-1h7l8 5 9 11 14 18 26 34 10 13 14 18 18 24 4-4 13-17 14-18 12-16 14-18 30-39 7-8 5-3h20l9 6 6 5 4 6 1 6-4 10-13 17-20 26-14 18-13 17-14 18-13 17-14 18 1 4 13 17 30 39 13 17 14 18 15 20 12 15 6 10 1 6-3 7-4 5-11 7-2 1h-21l-8-7-7-8-12-16-11-14-20-26-14-18-13-17-10-13-3-3-12 16-28 36-13 17-14 18-13 17-8 10-9 8h-22l-9-6-8-8-2-4 1-8 6-10 12-15 13-17 60-78 13-17-1-4-10-13-14-18-40-52-14-18-12-16-10-13-4-9 1-7 6-8 9-7z" fill="#0370FE"/>
<path transform="translate(319,433)" d="m0 0h7l14 8 9 5 13 7 7 3 20 11v2l5 1 28 13 36 13 27 7 18 3 21 2v4l-119 119-12 8-11 4-12 2h-10l-14-3-10-4-12-9-55-55-3-5-18-18-7-9 3-7 7-8 13-18 14-19 7-11 8-15 10-14 11-14z" fill="#0009FF"/>
<path transform="translate(1337,181)" d="m0 0h23l9 3 5 6 1 4v271h162l7 3 4 6 1 3v15l-4 8-6 3-9 1h-185l-15-2-5-4-3-6-1-10v-281l2-11 3-5 5-3z" fill="#0370FE"/>
<path transform="translate(1605,181)" d="m0 0h23l9 3 5 6 1 4v296l-3 7-5 5-3 1h-31l-5-2-5-6-2-10v-288l3-9 5-5z" fill="#0370FE"/>
<path transform="translate(242,370)" d="m0 0 4 2 16 12 18 14 14 10 17 12 17 11 19 12 17 10-2 1-17-9-5-3-14-8h-7l-6 4-9 12-10 14-12 22-12 16-13 18-7 9-5 6-3 7 9 11 18 18-1 2-67-67 1-2 2-24 6-29 9-29 12-29z" fill="#034FFE"/>
<path transform="translate(203,183)" d="m0 0 26 1 22 4 28 8 24 9 26 11 12 6-3 6-12 15-10 13-13 18-12 17-10 15-3 3 1-4v-7l-2-7-24-12-18-13-27-16-12-9-15-9-8-4-3-4-5 1-8 7-76 76v-3l14-14 6-7 8-7z" fill="#024EFE"/>
<path transform="translate(456,112)" d="m0 0 7 6 74 74h-3l-6-5v14l-3 21-8 32-11 30-12 27-6 12-5-5-15-12-20-15-18-13-24-16-14-9 2-1 17 9 5-1 2-4 11-18 10-16 11-18 9-10 7-11 11-16 7-13 1-8-7-9-15-16-7-7z" fill="#034FFE"/>
<path transform="translate(459,371)" d="m0 0 1 2-9 16 2 4 12 9 6 5 11 6 10 8 10 7 13 9 10 8 14 8 8 8 4 6 9 2 5-1 7-7 2 1-48 48-2-1-27-3-20-4-25-7-30-11-30-14-3-2 12-15 27-36 12-17 15-23z" fill="#034FFE"/>
<path transform="translate(242,370)" d="m0 0 4 2 16 12 18 14 14 10 8 6-2 1-11-6-6 3-9 11-6 8-7 11-10 16-12 17-14 21-7 8-3 3h-2l-1 6 13 14-1 2-23-23 1-2 2-24 6-29 9-29 12-29z" fill="#0488FE"/>
<path transform="translate(203,183)" d="m0 0 26 1 22 4 28 8 24 9 26 11 12 6-3 6-12 15-10 13-11 15-1-2 1-7-5-5-11-5-9-5-11-7-14-9-5-3-6-4-14-7-3-2v-2l-5-2-11-8-14-7-5 1-4 2 6-7z" fill="#0388FE"/>
<path transform="translate(506,162)" d="m0 0 7 6 24 24h-3l-6-5v14l-3 21-8 32-11 30-12 27-6 12-5-5-15-12-20-15-15-11h3l7 4 6-1 8-14 7-9 5-6 2-5 10-14 7-11 9-11 7-11 6-12 5-9v-7l-9-10z" fill="#0488FE"/>
<path transform="translate(430,414)" d="m0 0 1 2-4 7h2l5 5v2l4 2 6 5 15 11 6 4 11 7 4 4 11 8 18 14 8 7 3 4 5 5h6l5-4 2 1-12 12-2-1-27-3-20-4-25-7-30-11-30-14-3-2 12-15 27-36z" fill="#0388FE"/>
<path transform="translate(506,162)" d="m0 0 7 6 24 24h-3l-6-5v14l-3 21-1 5h-1v-15l-1-8-3 3-8 13-5 5-6 8-5 9-11 16-14 20-4 5-3 8-3 3-6-1-5-3-5-2-11-8h3l7 4 6-1 8-14 7-9 5-6 2-5 10-14 7-11 9-11 7-11 6-12 5-9v-7l-9-10z" fill="#036FFE"/>
<path transform="translate(430,414)" d="m0 0 1 2-4 7h2l5 5v2l4 2 6 5 15 11 6 4 11 7 4 4 11 8 18 14 8 7 3 4 5 5h6l5-4 2 1-12 12-2-1-27-3-12-2v-1h13l-1-5-3-5-8-6-6-3-7-6v-2l-3-1-5-5-10-7-5-3-15-11-8-6-7-6-1-5 3-7z" fill="#036FFE"/>
<path transform="translate(203,183)" d="m0 0 26 1 7 1v1l-16 1 2 5 8 7 18 11 10 6 23 14 7 4 4 2v2l10 3 10 6 3 7-4 9-6 8-1-2 1-7-5-5-11-5-9-5-11-7-14-9-5-3-6-4-14-7-3-2v-2l-5-2-11-8-14-7-5 1-4 2 6-7z" fill="#0370FE"/>
<path transform="translate(277,401)" d="m0 0 6 1 10 5 9 7-2 1-11-6-6 3-9 11-6 8-7 11-10 16-12 17-14 21-7 8-3 3h-2l-1 6 13 14-1 2-23-23 1-2 2-24h1l1 7h5l4-6 8-9 11-15 10-15 10-16 4-7 11-12 4-4z" fill="#036FFE"/>
<path transform="translate(326,60)" d="m0 0 2 1-120 120-1 2h10v1h-13l2-4z" fill="#013DFF"/>
<path transform="translate(209,513)" d="m0 0 4 1 12 13-1 2-15-15z" fill="#037CFE"/>
<path transform="translate(503,506)" d="m0 0h24l-1 4-2-1-21-2z" fill="#034FFF"/>
<path transform="translate(459,371)" d="m0 0 1 2-9 16-4 2 2-5z" fill="#035DFF"/>
<path transform="translate(1740,505)" d="m0 0 2 1v2h-20l2-2z" fill="#034FFF"/>
</svg>
