<?xml version="1.0" encoding="UTF-8"?>
<svg version="1.1" viewBox="0 0 2000 2000" width="500" height="500" xmlns="http://www.w3.org/2000/svg">
<path transform="translate(987,130)" d="m0 0h22l21 2 21 5 21 8 16 8 17 12 12 11 8 7 197 197 2 1v2l4 2 152 152 8 7 11 11 7 8 315 315 18 22 8 13 9 17 8 24 4 17 3 24v17l-4 26-6 21-8 20-9 17-12 17-12 13-7 8-113 113-6 5-5 6-7 6-5 6-8 7-548 548-11 9-10 8-18 11-20 9-19 6-15 3-25 2h-14l-21-2-18-4-20-7-16-8-14-8-14-11-16-15-434-434-8-7-3-3v-2l-3-1-7-8-11-11-8-7-8-9-6-5-6-7-6-5-7-8-71-71-8-7-109-109-7-8-10-13-8-13-11-23-7-21-4-19-2-20v-15l2-17 6-25 7-19 8-16 8-13 10-13 9-10 7-8 336-336 6-5 2-3h2l2-4 20-20h2l2-4 112-112h2l2-4h2l2-4h2l2-4 4-4h2l2-4h2l2-4 8-7 184-184 17-13 13-8 16-8 17-6 21-5zm-62 516-3 6-4 5-10 13-7 9-12 15-7 9-10 13-12 16-10 13-14 19-10 13-12 17-13 18-16 23-38 57-11 17-14 22-11 18-14 24-15 26-14 25-16 29-9 19 4 5 11 8 16 13 13 10 14 11 21 16 19 14 21 16 17 12 36 26 17 12 16 10 27 18 17 11 19 12 23 15 48 28 26 15 45 25 14 7 4 1 10-14 14-18 11-14 12-15 15-20 16-21 15-20 9-13 14-19 14-20 10-14 10-15 29-43 13-21 12-19 31-51 16-28 13-24 12-22 6-14-1-5-14-10-17-14-16-12-18-14-19-14-13-10-38-28-17-12-18-13-66-44-22-14-25-16-21-13-26-15-19-11-29-16-26-14-21-11z" fill="#0011FE"/>
<path transform="translate(1322,381)" d="m0 0h2v2l4 2 152 152 8 7 11 11 7 8 315 315 18 22 8 13 9 17 8 24 4 17 3 24v17l-4 26-6 21-8 20-9 17-12 17-12 13-7 8-113 113-6 5-5 6-7 6-5 6-8 7-203 203-2-1-2-4-3-1 1-1-6-1-1 2-4-1-22-2-13-2v2l-13-2h-9l-7-1-5-1-13-2-26-5-24-6-23-6-16-5-8-2-26-8-7-3-9-3-19-7-9-3-7-3-18-7-16-6v-2l-6-1-10-4-14-7-9-4-16-7-19-10-11-5-6-3 4-4 12-16 10-13 11-14 12-15 15-20 16-21 15-20 9-13 14-19 14-20 10-14 10-15 29-43 13-21 12-19 31-51 16-28 13-24 12-22 6-14v-4l-14-10-17-14-16-12-18-14-19-14-13-10-38-28-17-12-18-13-27-18 4-1 9 6 4 2 3 1 3 3 4 2 3 3 6 4 8 4v2l7 2v2l6 2 11 5 8 1 4-9h2v-2l4-4 7-13 6-10 8-13 6-7 10-13 18-27h2l2-4 4-6 11-17 6-10 6-8 4-6 8-10 7-9 14-20 4-6 4-5 6-9 3-6 6-8 7-10 8-12 8-13 8-20h-3l1-5 5-9-1-3 6-10 5-9v-7l-7-12-6-7v3l3 1 2 10-9 20-6 10-6 12-3 8-5-3 1-8 4-10 6-11 4-6 7-16-1-8-7-12-9-11-7-8 1 2 8 11 4 8 1 5-3 7-6 12-4 6-8 18-6 14-8 10-6 9-7 11-6 8-1-3 5-8 6-12 12-15 3-5 6-16 1-8 6-14 8-15 1-5-3-9-4-6-5-7v-2h-2v-2h-2l-4-10-2-1h-3l-4-6 1-1-4-1-7-8v-2l-3-1-2-3v-3l-4-2-6-6v-2l-4-2-7-8-8-8z" fill="#0011FE"/>
<path transform="translate(987,130)" d="m0 0h22l21 2 21 5 21 8 16 8 17 12 12 11 8 7 197 197 3 5 9 9v2l3 1 7 8 7 6 3 6 5 5 5 6 5 1-1 2 2 3 2 2 1-2 5 6 1 7h2v2h2l7 10 5 9 1 7-8 17-3 4-3 10-1 1-2 11-7 17-8 9-4 6-3 5-7 13-1 3 10-14 5-8 9-12 6-12 5-13 7-13 5-9 4-7 1-5-4-10-8-12-3-5h2l9 11 10 13 6 12-1 7-8 18-4 5-7 14-2 7v5l3 2 5-12 8-14 7-14 4-9-2-10-2-1-1-5 5 5 9 14 1 2v7l-9 16-3 5 2 1-7 14 4-1-2 6-8 19-10 15-11 16-8 11-4 7-6 9-4 5-7 11-4 5-4 6-12 15-6 8-4 6-5 8-11 17-7 10-4 6h-2l-2 4-6 10-16 22-7 9-4 5-12 20-9 16-3 1v2h-2l-3 9-5 1-8-3-13-6v-2l-5-1-2-1v-2l-7-2-5-4-5-3v-2l-6-2-2-3-6-1-3-3-6-4-7-2-36-24-22-14-25-16-21-13-26-15-19-11-29-16-26-14-23-12-1 5-5 6-10 13-7 9-12 15-7 9-10 13-12 16-10 13-14 19-10 13-12 17-13 18-16 23-10 15-15 22-2-2 2-5h3l1-5 2-2v-3l5-5 2-4 3-3 1-3 1-4 3-2 1-6 4-10 1-9-3-8-6-8v-2l-5-2-5-5-4-1-5-3-7-1-1-3-16-3-6-4-5-2v-2l-5-2v-3l-3-1-8-11v-2l5 2 11 9 10 7 17 8 22 8 8 5 10 10 2 7-2 12-4 10v1l6-9 4-8 4-11v-12l-4-6-7-6-11-6v-3l6-3 13 8 7 6 2 8-1 9-3 8 4-5 7-14 1-5 2-2-5-11v-2l-5-2-1-2h2l-1-4-14-7-14-5-25-12-11-8-10-8-13-8-5-4-11-7-12-6-15-11-18-11-10-8-10-6-17-10-12-8-14-9-19-11-12-7-6-3-8-6-16-10-4-3v-2l-4-1-9-6h-3l-2 2-8-6v-2l3-1-1-3h-6l-6 2-1 3-11 7-4 3h-2l1 4-10 7-3 1v2l-5 3-11 9-24 24-2 4-6 5-5 6-6 5-6 7-10 8-5 6-8 7-6 6-2-1 149-149 6-5 2-3h2l2-4 20-20h2l2-4 112-112h2l2-4h2l2-4h2l2-4 4-4h2l2-4h2l2-4 8-7 184-184 17-13 13-8 16-8 17-6 21-5z" fill="#0011FE"/>
<path transform="translate(781,1194)" d="m0 0 18 6 16 9-1 2 18 9 1 4 5 2v-2l6 2 4 3-2 1 12 6h3l2 3 5 1 1 2 6 3 4 3 5 3v2l3-1 2 2 2 1v2l3 1v2l6 2 14 8 7 5 5 2v2l10 2 22 13 24 14 26 15 45 25 14 7 1 3 5 1 5 3 21 10 16 8 13 6 5 2 5 3 9 3v2l6 1 6 2v2l6 1 25 10 8 3 10 3 8 4 17 6 30 10 11 3 14 4 18 5 17 4v2l11 1 13 3 26 5 12 1v2l4-1 4 1h10l7 1 4 2v-2h8l14 2 13 1 4 1 1-1h6l2 3 1-2 2 8-344 344-11 9-10 8-18 11-20 9-19 6-15 3-25 2h-14l-21-2-18-4-20-7-16-8-14-8-14-11-16-15-160-160-3-5-21-21v-2l-4-2-5-6-2-1v-2h-2v-2h-2v-2h-2v-2h-2v-2l-4-2-5-6-2-1v-2h-2v-2h-2v-2h-2l-6-7-6-6-4-5v-3h-2l-4-5v-2h-2l-1 2-6-5-3-5v-2h-2l-2-5h-2l-6-8-1-2-5-3-6-5v-2h-2l-2-4-4-4-1-2-6-5-7-8-10-12-5-9 1-5 7-3 7-9 8-7 3-3 5-9h2l2-5 12-17 10-16 9-12 6-10 7-10 4-6 10-14 6-8 5-8 8-13 5-7 4-9 7-10 15-20 7-9 7-11 5-8 8-11 4-7 6-8 1-2h3l1 4 6-7 4-5h2l2-6 5-6h3l6-9 3-3v-2z" fill="#0011FE"/>
<path transform="translate(642,1072)" d="m0 0 8 6 42 33 18 14 19 14 21 16 18 13 19 14 17 12 18 13 15 10 38 25 17 11 19 12 22 14-4 1-3-1v-2l-6-2-11-7-10-6-5-2-4-4-4-3h-2v-2l-4-1-5-3-2-2-1-2-6-1-1-2-4-2-7-3-10-5 2-2-8-4 1 3-6-2-2-3 1-1-8-4-11-6-1-3-15-8-14-4-2-1-8 3h-2l1 3-5 4-5 8-4 1-6 10-5 5-7 8h-1v-5h-3l-2 5-7 9-4 7-10 15-7 11-9 11-7 10-6 8-7 10-6 12-7 10-5 8-6 10-4 5-7 10-6 8-7 11-4 5-3 6-9 12-16 25-8 11-1 2h-2l-2 5-4 7-6 4-7 8-5 6-6 2 1 6 7 11 13 14 5 6 3 1 1 4 4 4v2h2l5 6 5 1 1 2 2 2 3 5 2 4h2l2 5h2l3 4v3l4 2 2 2 3-1 4 5v2h2l3 5 2 4 5 1v3l2 4 4 2v2h2v2h2v2h2v2l3 1 6 7 2 1v2h2v2h2v2h2v2h2v2l3 1 6 7 26 26-1 2-191-191 2-1 4 2 1-6v-24l1-7 1-6h2l-1-4 1-5v-15l2-8 2-10v-8l3-10 2-15 1-4 6-25 4-16 5-17 9-29 3-10 6-17 4-11 5-13 6-15 5-14 4-8 4-10 5-11 4-10 6-13 3-6 7-16h2l1-6 1-2h2l1-5 6-11z" fill="#0379FE"/>
<path transform="translate(761,294)" d="m0 0m-1 1m-1 1m-1 1m-1 1m-1 1m-1 1m-1 1m-1 1m-1 1m-1 1m-1 1m-1 1m-1 1m-1 1m-1 1m-1 1m-1 1m-1 1m-1 1m-1 1m-1 1m-1 1m-1 1m-1 1m-1 1m-1 1m-1 1m-1 1m-1 1m-1 1m-1 1m-1 1m-1 1m-1 1m-1 1m-1 1m-1 1m-1 1m-1 1m-1 1m-1 1m-1 1m-1 1m-1 1m-1 1m-1 1m-1 1m-1 1m-1 1m-1 1m-1 1m-1 1m-1 1m-1 1m-1 1m-1 1m-1 1m-1 1m-1 1m-1 1m-1 1m-1 1m-1 1m-1 1m-1 1m-1 1m-1 1m-1 1m-2 1 2 1-4 3zm-4 4 2 1-4 3zm-4 4 2 1-3 2zm-2 3m-2 1 2 1-4 3zm-4 4 2 1-4 3zm-4 4 2 1-4 3zm-4 4 2 1-115 115v-3zm-116 116 2 1-22 22-1 2 10 1h19l11 1 12 2h13l8 1h3v2l3-1 13 2 8 2 13 2 19 4 10 3 24 6 7 2 24 7 13 4 10 3 10 4 9 3 16 6 12 4 11 5 14 5 9 4 14 6 12 5 8 4 8 3 13 6 3 1v2l7 1v2l8 2 4 3 4 1v2l5 1 15 8 3 2-1 2-9-5-1 5-5 6-10 13-7 9-12 15-7 9-10 13-12 16-10 13-14 19-10 13-12 17-13 18-16 23-10 15-15 22-2-2 2-5h3l1-5 2-2v-3l5-5 2-4 3-3 1-3 1-4 3-2 1-6 4-10 1-9-3-8-6-8v-2l-5-2-5-5-4-1-5-3-7-1-1-3-16-3-6-4-5-2v-2l-5-2v-3l-3-1-8-11v-2l5 2 11 9 10 7 17 8 22 8 8 5 10 10 2 7-2 12-4 10v1l6-9 4-8 4-11v-12l-4-6-7-6-11-6v-3l6-3 13 8 7 6 2 8-1 9-3 8 4-5 7-14 1-5 2-2-5-11v-2l-5-2-1-2h2l-1-4-14-7-14-5-25-12-11-8-10-8-13-8-5-4-11-7-12-6-15-11-18-11-10-8-10-6-17-10-12-8-14-9-19-11-12-7-6-3-8-6-16-10-4-3v-2l-4-1-9-6h-3l-2 2-8-6v-2l3-1-1-3h-6l-6 2-1 3-11 7-4 3h-2l1 4-10 7-3 1v2l-5 3-11 9-24 24-2 4-6 5-5 6-6 5-6 7-10 8-5 6-8 7-6 6-2-1 149-149 6-5 2-3h2l2-4z" fill="#0379FE"/>
<path transform="translate(1322,381)" d="m0 0h2v2l4 2 152 152h-3l-4-2-1 7v14h-2l1 7-2 6h2l-1 9-2 6-1 23-2 4-1 14-3 10-1 12-3 10-1 10-3 9-2 10-2 6-2 9-3 10-5 17-3 11-4 10-4 14-3 7-3 8-3 10h-2v5l-3 7-6 16-4 9-5 11-5 14-7 15-9 19-4 9-8 16-2 5-2 1-1 4h-2l-1 5-4 9-2-1v-4l-14-10-17-14-16-12-18-14-19-14-13-10-38-28-17-12-18-13-27-18 4-1 9 6 4 2 3 1 3 3 4 2 3 3 6 4 8 4v2l7 2v2l6 2 11 5 8 1 4-9h2v-2l4-4 7-13 6-10 8-13 6-7 10-13 18-27h2l2-4 4-6 11-17 6-10 6-8 4-6 8-10 7-9 14-20 4-6 4-5 6-9 3-6 6-8 7-10 8-12 8-13 8-20h-3l1-5 5-9-1-3 6-10 5-9v-7l-7-12-6-7v3l3 1 2 10-9 20-6 10-6 12-3 8-5-3 1-8 4-10 6-11 4-6 7-16-1-8-7-12-9-11-7-8 1 2 8 11 4 8 1 5-3 7-6 12-4 6-8 18-6 14-8 10-6 9-7 11-6 8-1-3 5-8 6-12 12-15 3-5 6-16 1-8 6-14 8-15 1-5-3-9-4-6-5-7v-2h-2v-2h-2l-4-10-2-1h-3l-4-6 1-1-4-1-7-8v-2l-3-1-2-3v-3l-4-2-6-6v-2l-4-2-7-8-8-8z" fill="#037AFE"/>
<path transform="translate(1204,1178)" d="m0 0 1 3-3 8v5l-2 5 1 4 9 3 5 5 2 1v2l4 2 15 13 8 9-1 5-4 1-10-10-9-7-7-7h-3l-4-2-7-5-6-3-1-4-3 1v12l9 4 7 6 11 9 2 5 5 4 3 5-2 1 2 4 12 11 11 6 12 9 12 10 8 6 7 6 5 5 12 8 3 3 6 3 9 6 11 8 10 7v2l6 2 7 5 7 4 9 7 18 12 9 7 10 8 11 7 12 11 5 4 17 17v2l3 1 5 9 3 3 3 1v-2l4-2h7l-1 2 12-3 8-4 7-6 1-2h3v-2l4-1 1-3 2-1-2-2 9-7h2v-2l4-1 1-3 13-10 2-6 3-1 11-11 1 5-95 95-2-1-2-4-3-1 1-1-6-1-1 2-4-1-22-2-13-2v2l-13-2h-9l-7-1-5-1-13-2-26-5-24-6-23-6-16-5-8-2-26-8-7-3-9-3-19-7-9-3-7-3-18-7-16-6v-2l-6-1-10-4-14-7-9-4-16-7-19-10-11-5-6-3 4-4 12-16 10-13 11-14 12-15 15-20 16-21 15-20 9-13 14-19 14-20z" fill="#0379FE"/>
<path transform="translate(1255,1250)" d="m0 0 6 2 3-1 4 2 1 2h4l10 9 14 10 5 4h3l7 9 13 9 9 7 10 6 8 7 6 3 10 7 11 7 8 7 5 4 4 2-3 1 5 5 8 5 1 5h-2l-5-5-13-7-5-5-10-7-6-3-4-5-14-7-10-8-9-6-13-10-9-6-8-7-17-13-8-7-16-11-4-2z" fill="#0279FF"/>
<path transform="translate(1221,1166)" d="m0 0 3 3v2l6 2 11 7 9 7 14 12 7 7 21 14 9 7 14 11 15 13 11 8v2l4 2 9 6 11 7 8 6 10 7 6 4 8 5 6 3 12 11 8 6 9 6 9 7 10 6 19 12 9 6 7 7 10 13 10 14 5 6 4 2h9l14-3 3 1-5 2-14 3h-7l-7-3-7-9-7-10-13-16-9-8-13-8-14-8-5-4-6-4-5-4-9-6-20-16-7-4-4-1v-2h-2v-2l-7-2-5-2-2-4h-2v-2l-5-2-1-3-4-2-4-3-4-2v-2l-5-2-8-4-7-6-4-3-3-1v-2l-2-1-8-7-6-7-9-7-10-8-14-9-11-8-5-6-6-4-5-5-5-4-10-7-11-7-3-5z" fill="#037AFF"/>
<path transform="translate(1271,1226)" d="m0 0 5 2 9 6 10 8 9 8 8 7 8 6 9 7 16 12 12 8 6 5 14 9 13 9 6 4 7 6v2l4 1 10 7-4 1-2-1v-2l-3 1-8-4-5-5-10-5v-2l-4-1-7-3-5-5-6-2-3-2v-2l-4-1-8-6-1-4-8-2-19-14-11-9-7-5v-3l-4-2-7-10-7-8-12-9z" fill="#037AFF"/>
<path transform="translate(1381,453)" d="m0 0 2 3 1 8-7 17-4 5-9 19-8 16-8 10-7 10-10 16-8 15-10 14-7 10-5 8-5 5-7 8-8 10-6 9-16 26-11 17-6 8-7 10-12 17-11 14-9 15-7 11-4 9-7 10-4 3v7 4l-5-1-3-3 3-1 3-9 5-4 5-7 4-9 6-10 3-6 5-8 7-9 11-14 2-4h2l2-5 6-9 8-11 6-9 6-10 8-13 6-10 1-2h2l2-5 4-6 13-14 11-15 4-6 12-17 8-14 3-6 4-6 3-5 12-16 7-10 5-12 9-18 5-8 5-13z" fill="#037AFF"/>
<path transform="translate(454,611)" d="m0 0 6 2 4 6 9 6 16 9 5 5 17 8 5 4 11 6 15 8v2l12 6 5 3 10 7 7 4 10 5 5 3 11 10 11 6 13 8 5 5 10 5 9 6 5 4 10 6 4 3v2l5 2 9 5 5 4 9 5 12 9 10 7 16 8 16 6 11 4 8 5 7 9 2 7-1 13h-1l-2-16-6-9-8-6-23-8-14-6-13-8-13-10-14-9-9-6-9-5-10-8-9-6-17-10-8-6-5-4-9-5-11-7-7-6-3-3-16-8-22-14-7-3v-2h-2l-3-3-10-5-15-9-16-8-16-11-18-11-5-8-5-1z" fill="#037AFF"/>
<path transform="translate(828,1229)" d="m0 0 9 1v1l-10 2-8 4-8 10-7 9-3 5-12 13-3 6h-2l-2 4-10 12-8 11-4 5-4 7-7 11h-2l-2 6-6 9-7 13-7 12-5 8-7 12-4 8-9 12-7 9-11 15-7 10-4 5-7 9-6 8-6 10-10 15-5 6-10 15-10 9-5 8-5 5-1 5-2-2 1-5 5-6 4-7 13-13 10-15 6-7 7-11 4-7 7-9 10-13 1-2h2l2-5 7-10 6-9 7-8 7-9 6-11 8-14 8-13 4-8 10-16 3-4 3-6 8-11 6-10 4-5 10-13 6-8 4-2 2-7 7-6 8-10 6-9 11-13 5-3z" fill="#037AFF"/>
<path transform="translate(1277,1274)" d="m0 0 2 1-1 3 6-1 10 7 10 9 9 6v2l5 2 3 3 1 5 1 4 3 1 4 1-1 3 4 1 3 4v3l3-1 4 4-2 4-3-2v-2l-6-2-10-8-8-5-11-8-10-7-10-9-13-10-7-6 4-1 4 1 3-1 3 1z" fill="#0279FF"/>
<path transform="translate(526,642)" d="m0 0 4 1 8 3 9 4 5 1 10 7 10 4 3 4 7 4 3 3 13 4 1 4 7 2 2 4 10 5 5 4 11 4 1 4 4 2 6 4 3 3 7 2 6 5 5 2 5 4 7 7v4l-5-2-11-7-16-11-6-3-6-5-6-3-11-7-5-3-9-7-3-3-8-4-9-4-5-3v-2l-5-2-14-9-8-5-14-8-8-4z" fill="#037AFF"/>
<path transform="translate(709,746)" d="m0 0 5 2 11 9 10 7 17 8 22 8 8 5 10 10 2 7-2 12-8 20h-2l1-6 4-10 1-9-3-8-6-8v-2l-5-2-5-5-4-1-5-3-7-1-1-3-16-3-6-4-5-2v-2l-5-2v-3l-3-1-8-11z" fill="#0279FF"/>
<path transform="translate(1377,442)" d="m0 0 4 1 1 3h2l5 9 8 11 4 8 1 5-3 7-6 12-4 6-8 18-6 14-8 10-6 9-7 11-6 8-1-3 5-8 6-12 12-15 3-5 6-16 1-8 6-14 8-15 1-5-3-9-4-6-5-7v-2h-2v-2h-2z" fill="#0277FF"/>
<path transform="translate(1221,1153)" d="m0 0 2 1-3 6-5 15-1 7 2 1v2l5 1 4 4 15 11v2l4 2 6 4 3 7 6 8 2 4-1 3-12-11-5-5-15-12-9-7v-2l-10-2-1-5v-8h2l-1-3 6-15z" fill="#0379FE"/>
<path transform="translate(789,1204)" d="m0 0 3 1-3 7-6 5-3 5h-2l-2 5-8 10-7 8-6 8-5 4-4 4h-2v-9l9-11 10-11 4-7h2l2-4 8-10z" fill="#037AFF"/>
<path transform="translate(803,1219)" d="m0 0h2v4h-2l-3 10-6 7-6 8-8 9-8 7-3 1-1 4-5 5-5 3-8 8-2-1 5-6 4-6 3-3 3-6 4-4 3-5 7-6h2l2-5 2-3h2l2-5 9-11 5-4z" fill="#037AFF"/>
<path transform="translate(1426,1352)" d="m0 0 4 1 4 3 8 2 3 2 8 2 2 1v2h2l3 3v2l6 2 7 10 3 3v2l4 2 4 5 3 6 3 3 4 7 1 1h9l14-2 5 2-3 2-13 3h-8l-6-3-8-8-9-12-14-15-8-7-11-7-11-6-6-5z" fill="#037AFF"/>
<path transform="translate(638,676)" d="m0 0 6 2 4 4 8 4 5 4 15 10 16 10 5 2-1 2-4-1v5l-8-4-20-13-6-4-9-5-2-4-6-2-13-7 2-1 3 1 5-2z" fill="#0279FF"/>
<path transform="translate(1335,576)" d="m0 0 1 2-3 9-4 8-7 13-4 5h-2l-2 4-7 8-5 4-5 5-4 6-2 1v2l-3 2-1 4-3 2-5 5-3 4h-2l2-4 14-21 12-13 7-10 13-17 7-10z" fill="#037AFF"/>
<path transform="translate(671,1416)" d="m0 0 2 1-6 10-7 10-3 5-8 11-3 4-4 8-7 11-8 10-8 11-5 6-5 5-4 2-2 5-1 3h-2v2l-4 3v6l1 4-4-4-2-4v-5h2l2-7h3l2-5 4-6 5-1 2-4 6-7 5-5 3-1v-2l5-5 7-8 2-6 4-4 2-5 3-4 3-5 1-3h2l1-5h2l2-4 5-7 2-1 3-6z" fill="#037AFF"/>
<path transform="translate(751,1296)" d="m0 0 2 1-8 11-14 20-9 16-6 11-9 14-11 17-8 10-4 6-6 8-3 3 2-9h2l2-4 5-8 1-2h2l1-4h2l2-6 4-5 2-5 2-3h2l2-6 4-5 3-5h2l1-5 2-5 4-4 8-16 4-4 3-5 7-9h2l2-4z" fill="#037AFF"/>
<path transform="translate(494,579)" d="m0 0 7 7 9 6 11 7 7 6 12 6 5 4 2 2-1 3h-6l-4-4-6-1-9-5-5-6-11-4-6-9-3-2v-2l-3-1z" fill="#0279FF"/>
<path transform="translate(1231,767)" d="m0 0 1 2h3v2l2 1-6 10-3 6-7 10-5 4-2 6-5 1-6-2-8-4 3-1 4 2 6 1 1-7 7-6 3 1 1-7 9-16z" fill="#037AFF"/>
<path transform="translate(598,1473)" d="m0 0 3 2 5-2-5 10-9 7-5 8-3 5-5 4v7l-3-3-4-6 1-4 6-4 4-8 4-5 6-4z" fill="#037AFF"/>
<path transform="translate(585,1467)" d="m0 0 3 1-2 11-4-2-1 2-3-1-2 2v3l1 3 3 3-2 7-5 3-5-1-7-6 3-3 5-2 6-11 5-4h2l2-4z" fill="#037AFF"/>
<path transform="translate(1341,610)" d="m0 0 2 4-2 2-2 4-1 5v3l-8 11-1-2-5 1 1 7-3 1v4l-3-1 1-4-5 3-2-1 8-9 13-18 4-6z" fill="#0277FF"/>
<path transform="translate(484,604)" d="m0 0 9 5 11 7 9 7 12 6 3 4-11-3-9-2-6-7-9-4-4-6-4-2z" fill="#037AFF"/>
<path transform="translate(1214,749)" d="m0 0 1 3-3 5-1 11-2 4h-4l-2 6-2 3-5 1-1 7 1 7-1 1-7-1-5-4 8 1 1-10 8-9 9-17z" fill="#0279FF"/>
<path transform="translate(451,603)" d="m0 0 2 1-6 7-8 7-13 13-2 4-6 5-5 6-6 5-6 7-10 8-5 6-8 7-6 6-2-1z" fill="#489CFE"/>
<path transform="translate(1290,1045)" d="m0 0 1 3-9 15-2 2-2 5-8 13-11 18-8 13-2 3h-2v2h-2l-1 5-3 3-5 7-2-1 18-27 12-19 10-16 14-23z" fill="#1483FE"/>
<path transform="translate(724,1284)" d="m0 0h2v3h2l-1 5-7 10-4 7-2 1 1-5-5 2-2 4-2 1 2-5 8-11z" fill="#037AFF"/>
<path transform="translate(569,639)" d="m0 0h5 3l2 2v3l3 1v2l4-1 5 5v2l6 1 4 4v2l7 2 8 5-1 2-5-3-20-10v-2l-4-2-10-6v-2l-4-2z" fill="#037AFF"/>
<path transform="translate(1268,668)" d="m0 0 2 4-5 5-2 5-4 6-2 5-3 3h-2l-2 5-3 1v2l-2-1 6-9 7-10 6-10z" fill="#037AFF"/>
<path transform="translate(1217,807)" d="m0 0 1 2 3-1 7 1-2 9h-6l-6-4 1-5z" fill="#037AFF"/>
<path transform="translate(1251,713)" d="m0 0 1 3-6 7-12 17-7 10-1-3 4-9 3-1 2-5 4-4 2-3 3-1 1-5 5-4z" fill="#037AFF"/>
<path transform="translate(1621,1322)" d="m0 0 2 1-37 37-1-2 1-2h2l1-4 8-7 7-6 5-5z" fill="#037AFF"/>
<path transform="translate(471,595)" d="m0 0h5l-2 10 2 6-4-2-3-5v-2l-7 1 5-5z" fill="#037AFF"/>
<path transform="translate(460,600)" d="m0 0 3 1-9 7-3-1v2h-2v3h-2l-1 3-6 5-1 2h-2l-1 3h-2l-1 2h-2l2-4 12-12h2l2-4 4-2z" fill="#0264FF"/>
<path transform="translate(1240,785)" d="m0 0 4 2-7 14-2-4 1-9h2v-2z" fill="#037AFF"/>
<path transform="translate(1254,1105)" d="m0 0 1 2-6 10h-2v2h-2l-1 5-3 3-5 7-2-1 17-25z" fill="#037AFF"/>
<path transform="translate(585,1467)" d="m0 0 3 1-2 11-4-2-1 2-4-2 2-4 3-1 2-4z" fill="#0273FF"/>
<path transform="translate(1486,1426)" d="m0 0h13l-1 3-8 3-7-1z" fill="#037AFF"/>
<path transform="translate(392,662)" d="m0 0 2 1-8 9-8 7-6 6-2-1z" fill="#73B5FE"/>
<path transform="translate(1136,769)" d="m0 0 6 1v2h4l5 5h2l2 5-9-5-10-7z" fill="#037AFF"/>
<path transform="translate(699,1332)" d="m0 0h2l-2 5-7 12-4 4-1-3 4-5h2l1-5 3-6h2z" fill="#037AFF"/>
<path transform="translate(1290,1045)" d="m0 0 1 3-9 15-5 5 2-5z" fill="#2089FE"/>
<path transform="translate(1262,730)" d="m0 0 2 2v5l-2 4h-2l-2-3 1-5z" fill="#037AFF"/>
<path transform="translate(933,1280)" d="m0 0 10 5 10 6-4 1-3-1-1-2-10-5v-2h-2z" fill="#097DFE"/>
<path transform="translate(1114,755)" d="m0 0h5l4 4 2-1 5 6h-3l-13-8z" fill="#0276FF"/>
<path transform="translate(1251,741)" d="m0 0 5 1 1 5-1 2h-4l-1-4z" fill="#037AFF"/>
<path transform="translate(735,741)" d="m0 0 2 1v2l3-2h3l-2 6-5-1z" fill="#037AFF"/>
<path transform="translate(1437,1379)" d="m0 0 5 2 1 3h-3v2l-4-2z" fill="#0273FF"/>
<path transform="translate(1261,1094)" d="m0 0v3l-5 8-3 1 2-5 3-5z" fill="#1C87FE"/>
<path transform="translate(1559,1380)" d="m0 0 2 2-6 7-5 2 1-3 5-4z" fill="#0155FF"/>
<path transform="translate(815,1219)" d="m0 0 7 1 6 2v1h-14z" fill="#037AFF"/>
<path transform="translate(1569,1373)" d="m0 0 3 1-7 7-3-3 6-4z" fill="#0153FF"/>
<path transform="translate(1267,1084)" d="m0 0 1 2-5 8-3 1 2-5z" fill="#0C7FFE"/>
<path transform="translate(1372,434)" d="m0 0 5 4 1 4-4 1-2-7z" fill="#0031FF"/>
</svg>
